<svg id="Component_3_1" data-name="Component 3 – 1" xmlns="http://www.w3.org/2000/svg" width="1921" height="512" viewBox="0 0 1921 512">
  <g id="Path_31" data-name="Path 31" fill="#011924">
    <path d="M 0.5 511.2115783691406 L 0.5 0.5001320838928223 L 1919.259643554688 0.5001320838928223 C 1911.537109375 5.328309059143066 1874.033325195312 28.67218589782715 1818.803344726562 61.37727355957031 C 1782.446899414062 82.90632629394531 1745.637573242188 104.2184677124023 1709.397583007812 124.7222747802734 C 1664.098388671875 150.351318359375 1619.566650390625 174.7822723388672 1577.0390625 197.3358459472656 C 1468.792846679688 254.7422790527344 1372.721435546875 300.4822692871094 1291.493774414062 333.2853698730469 C 1268.016723632812 342.7660827636719 1245.486206054688 351.2760925292969 1224.527587890625 358.5789489746094 C 1202.46875 366.264892578125 1181.544555664062 372.8251342773438 1162.3359375 378.0770263671875 C 1142.195434570312 383.5839538574219 1123.385009765625 387.8046569824219 1106.427124023438 390.6220397949219 C 1088.707885742188 393.5658569335938 1072.52099609375 395.0589294433594 1058.316162109375 395.0596618652344 C 1051.640502929688 395.0601196289062 1045.267333984375 394.7308349609375 1039.373779296875 394.0808410644531 C 1033.375 393.4194030761719 1027.7041015625 392.4072875976562 1022.517883300781 391.07275390625 C 1017.244018554688 389.7153625488281 1012.323120117188 387.986083984375 1007.891906738281 385.9329833984375 C 1003.388305664062 383.8463134765625 999.2633056640625 381.3660888671875 995.6316528320312 378.5613098144531 C 991.9407348632812 375.7110900878906 988.654296875 372.4441833496094 985.8633422851562 368.8515625 C 983.0252685546875 365.1984558105469 980.6188354492188 361.1039428710938 978.71044921875 356.6822814941406 C 976.768798828125 352.1829833984375 975.287841796875 347.217041015625 974.30859375 341.9220275878906 C 973.3123779296875 336.5351257324219 972.80712890625 330.6553649902344 972.80712890625 324.4463195800781 C 972.80712890625 316.7513122558594 972.0176391601562 309.4660949707031 970.46044921875 302.7925109863281 C 968.931884765625 296.2415466308594 966.6216430664062 290.0994262695312 963.5938110351562 284.5368041992188 C 960.62548828125 279.0837097167969 956.8864135742188 274.0379943847656 952.480224609375 269.5398864746094 C 948.1680908203125 265.1375122070312 943.0985717773438 261.1389465332031 937.412841796875 257.6556091308594 C 931.8543090820312 254.2498931884766 925.5535888671875 251.2427520751953 918.6854858398438 248.7172698974609 C 911.9747314453125 246.2498931884766 904.537353515625 244.1741790771484 896.5797729492188 242.5482330322266 C 888.807861328125 240.9601287841797 880.3255004882812 239.7570343017578 871.3681030273438 238.9722747802734 C 862.624755859375 238.2065582275391 853.1881103515625 237.8182220458984 843.3202514648438 237.8182220458984 C 827.1973876953125 237.8182220458984 809.3333129882812 238.8532257080078 790.2243041992188 240.8946533203125 C 771.950927734375 242.8465576171875 752.0526123046875 245.7708435058594 731.0823974609375 249.5860900878906 C 711.0904541015625 253.2232208251953 689.59619140625 257.7660827636719 667.1968994140625 263.0884704589844 C 645.9193115234375 268.1444091796875 623.26806640625 274.0358581542969 599.8726196289062 280.5994262695312 C 518.9440307617188 303.303955078125 425.5654907226562 334.9613342285156 322.3304748535156 374.6922607421875 C 281.7754821777344 390.3003845214844 239.5828552246094 407.207275390625 196.9250030517578 424.9436950683594 C 162.7988128662109 439.1325073242188 128.2997589111328 453.8810729980469 94.38642883300781 468.7794189453125 C 41.06970977783203 492.2016906738281 5.868637561798096 508.6870727539062 0.5 511.2115783691406 Z" stroke="none"/>
    <path d="M 1 0.9998779296875 L 1 510.4244079589844 C 8.272705078125 507.0111389160156 42.8260498046875 490.8839721679688 94.1851806640625 468.3215637207031 C 128.1016845703125 453.4218139648438 162.603759765625 438.6720581054688 196.73291015625 424.4820556640625 C 239.39501953125 406.7439575195312 281.5916748046875 389.8353881835938 322.1510009765625 374.225830078125 C 425.4002685546875 334.4891662597656 518.7940673828125 302.8268127441406 599.7374267578125 280.1182250976562 C 623.1392822265625 273.5527648925781 645.797119140625 267.659423828125 667.0811767578125 262.60205078125 C 689.4892578125 257.2775268554688 710.9921875 252.7330017089844 730.9930419921875 249.0941772460938 C 751.9752197265625 245.2767944335938 771.8857421875 242.3508605957031 790.17138671875 240.3975219726562 C 809.2978515625 238.3541870117188 827.1798095703125 237.3182373046875 843.3201904296875 237.3182373046875 C 853.20263671875 237.3182373046875 862.654052734375 237.707275390625 871.41162109375 238.4744262695312 C 880.3880615234375 239.2606201171875 888.8895263671875 240.466552734375 896.6798095703125 242.0584716796875 C 904.6621704101562 243.6894226074219 912.123779296875 245.7720336914062 918.8580932617188 248.2479858398438 C 925.7568969726562 250.7848815917969 932.08740234375 253.8065490722656 937.674072265625 257.2291870117188 C 943.394775390625 260.7341918945312 948.4963989257812 264.7584533691406 952.83740234375 269.1898803710938 C 957.2759399414062 273.7210693359375 961.0426025390625 278.8041687011719 964.0330810546875 284.2977600097656 C 967.0823974609375 289.89990234375 969.4085693359375 296.0841674804688 970.9473876953125 302.678955078125 C 972.5133056640625 309.3896484375 973.30712890625 316.7132263183594 973.30712890625 324.4463195800781 C 973.30712890625 330.6249084472656 973.8095092773438 336.4739379882812 974.8002319335938 341.8308410644531 C 975.7726440429688 347.0891723632812 977.2426147460938 352.0189208984375 979.1694946289062 356.4837036132812 C 981.0609741210938 360.8665771484375 983.4459228515625 364.9241943359375 986.2581176757812 368.5439453125 C 989.0230712890625 372.1032104492188 992.279541015625 375.3399047851562 995.9371337890625 378.1644287109375 C 999.539306640625 380.9463195800781 1003.632141113281 383.4070434570312 1008.101928710938 385.4779968261719 C 1012.505493164062 387.5182495117188 1017.397644042969 389.2372741699219 1022.642395019531 390.5870361328125 C 1027.805419921875 391.9160766601562 1033.453125 392.9239501953125 1039.428344726562 393.5830078125 C 1045.303833007812 394.2310791015625 1051.658569335938 394.5596618652344 1058.31591796875 394.5596618652344 C 1072.493408203125 394.5596618652344 1088.65234375 393.0696411132812 1106.344482421875 390.131103515625 C 1123.28564453125 387.3170166015625 1142.0791015625 383.100830078125 1162.202880859375 377.5989379882812 C 1181.400268554688 372.3505859375 1202.313110351562 365.794189453125 1224.361206054688 358.1122741699219 C 1245.311645507812 350.812744140625 1267.83447265625 342.3058471679688 1291.303833007812 332.8282165527344 C 1372.514770507812 300.0327453613281 1468.569580078125 254.3005981445312 1576.799560546875 196.9017944335938 C 1619.322875976562 174.3501281738281 1663.850463867188 149.9210815429688 1709.1455078125 124.293701171875 C 1745.382568359375 103.7910766601562 1782.189331054688 82.47991943359375 1818.543090820312 60.9520263671875 C 1870.838256835938 29.984130859375 1907.241333007812 7.4085693359375 1917.51513671875 0.9998779296875 L 1 0.9998779296875 M 0 -0.0001220703125 L 1921 -0.0001220703125 C 1921 -0.0001220703125 1291.970703125 395.5596008300781 1058.316040039062 395.5596008300781 C 1005.020812988281 395.5596008300781 972.30712890625 374.9875183105469 972.30712890625 324.4463195800781 C 972.30712890625 262.3119812011719 921.5548095703125 238.3181457519531 843.3201904296875 238.3181457519531 C 578.9200439453125 238.3181457519531 0 511.9998779296875 0 511.9998779296875 L 0 -0.0001220703125 Z" stroke="none" fill="#707070"/>
  </g>
  <g id="Path_33" data-name="Path 33" fill="#344150">
    <path d="M 1920.5 511.5000915527344 L 1.740286350250244 511.5000915527344 C 9.462826728820801 506.6717529296875 46.96662521362305 483.3269958496094 102.196662902832 450.6210632324219 C 138.5531005859375 429.0915222167969 175.3626251220703 407.7786865234375 211.6023864746094 387.2743835449219 C 256.9016723632812 361.6446228027344 301.4335632324219 337.2131958007812 343.9609375 314.6591491699219 C 452.2071533203125 257.2517700195312 548.278564453125 211.5115356445312 629.5064086914062 178.7091522216797 C 652.9833374023438 169.2284393310547 675.5140380859375 160.7186737060547 696.4725952148438 153.4162902832031 C 718.5314331054688 145.7303466796875 739.4556884765625 139.1705780029297 758.6640625 133.9191589355469 C 778.8045043945312 128.4127197265625 797.614990234375 124.1924896240234 814.5728759765625 121.3758239746094 C 832.2921142578125 118.4327239990234 848.4790649414062 116.9403457641602 862.6840209960938 116.9403457641602 C 869.3594970703125 116.9403457641602 875.7326049804688 117.2701034545898 881.6264038085938 117.9201049804688 C 887.625 118.5817718505859 893.2962036132812 119.5939178466797 898.4821166992188 120.9286804199219 C 903.7561645507812 122.2860565185547 908.6771240234375 124.0153427124023 913.1083374023438 126.0684356689453 C 917.6118774414062 128.1551055908203 921.7366943359375 130.6351013183594 925.3685913085938 133.4398651123047 C 929.0592651367188 136.2901000976562 932.345947265625 139.5567779541016 935.1366577148438 143.1491546630859 C 937.9747314453125 146.80224609375 940.3811645507812 150.8965301513672 942.28955078125 155.3182067871094 C 944.231201171875 159.8172454833984 945.712158203125 164.783203125 946.69140625 170.0782012939453 C 947.6876220703125 175.4648742675781 948.19287109375 181.3446350097656 948.19287109375 187.5536804199219 C 948.19287109375 195.2486724853516 948.9823608398438 202.5339202880859 950.53955078125 209.2074890136719 C 952.068115234375 215.7584381103516 954.3783569335938 221.9005889892578 957.4061889648438 227.4631958007812 C 960.37451171875 232.9162902832031 964.1135864257812 237.9620056152344 968.519775390625 242.4601135253906 C 972.8319091796875 246.8624877929688 977.9014282226562 250.8610534667969 983.587158203125 254.3443908691406 C 989.1456909179688 257.7500915527344 995.4464111328125 260.7572631835938 1002.314514160156 263.28271484375 C 1009.025268554688 265.7500915527344 1016.462646484375 267.8258056640625 1024.420288085938 269.4517822265625 C 1032.192138671875 271.0398559570312 1040.674560546875 272.2429504394531 1049.631958007812 273.0277099609375 C 1058.375244140625 273.7934265136719 1067.811889648438 274.1817626953125 1077.679809570312 274.1817626953125 C 1093.802612304688 274.1817626953125 1111.666625976562 273.1467590332031 1130.775756835938 271.1053466796875 C 1149.049072265625 269.1534423828125 1168.947387695312 266.2291564941406 1189.917602539062 262.4139099121094 C 1209.909545898438 258.7767639160156 1231.40380859375 254.2339172363281 1253.803100585938 248.9115295410156 C 1275.080688476562 243.8555755615234 1297.73193359375 237.9641571044922 1321.12744140625 231.4005889892578 C 1402.055908203125 208.6960601806641 1495.4345703125 177.0386810302734 1598.669555664062 137.3077239990234 C 1639.224487304688 121.6996307373047 1681.417114257812 104.792724609375 1724.074951171875 87.05629730224609 C 1758.201171875 72.86748504638672 1792.7001953125 58.11891555786133 1826.613525390625 43.2205810546875 C 1879.930297851562 19.79830741882324 1915.13134765625 3.312916040420532 1920.5 0.7884265780448914 L 1920.5 511.5000915527344 Z" stroke="none"/>
    <path d="M 1920 511.0000915527344 L 1920 1.575592517852783 C 1912.727294921875 4.988872528076172 1878.173950195312 21.11601257324219 1826.814819335938 43.67844009399414 C 1792.898315429688 58.57820129394531 1758.396240234375 73.32796478271484 1724.26708984375 87.51795959472656 C 1681.60498046875 105.2560577392578 1639.408325195312 122.1646270751953 1598.848999023438 137.7741546630859 C 1495.599731445312 177.5108184814453 1402.205932617188 209.1732025146484 1321.262573242188 231.8817749023438 C 1297.860717773438 238.4472503662109 1275.202880859375 244.340576171875 1253.918823242188 249.3979644775391 C 1231.5107421875 254.7224884033203 1210.0078125 259.2669982910156 1190.006958007812 262.9058227539062 C 1169.024780273438 266.7232055664062 1149.1142578125 269.6491394042969 1130.82861328125 271.6024780273438 C 1111.7021484375 273.6458129882812 1093.820190429688 274.6817626953125 1077.679809570312 274.6817626953125 C 1067.79736328125 274.6817626953125 1058.345947265625 274.292724609375 1049.58837890625 273.5255737304688 C 1040.611938476562 272.7393798828125 1032.110473632812 271.533447265625 1024.320190429688 269.9415283203125 C 1016.337829589844 268.3105773925781 1008.876220703125 266.2279663085938 1002.141906738281 263.7520141601562 C 995.2431030273438 261.2151184082031 988.91259765625 258.1934509277344 983.325927734375 254.7708129882812 C 977.605224609375 251.2658233642578 972.5036010742188 247.2415313720703 968.16259765625 242.8101043701172 C 963.7240600585938 238.2789154052734 959.9573974609375 233.1958160400391 956.9669189453125 227.7022552490234 C 953.9176025390625 222.1001129150391 951.5914306640625 215.9158172607422 950.0526123046875 209.3210601806641 C 948.4866943359375 202.6103515625 947.69287109375 195.2867736816406 947.69287109375 187.5536804199219 C 947.69287109375 181.3751068115234 947.1904907226562 175.5260620117188 946.1997680664062 170.1691589355469 C 945.2273559570312 164.9108276367188 943.7573852539062 159.9810638427734 941.8305053710938 155.5162963867188 C 939.9390258789062 151.1334381103516 937.5540771484375 147.0758209228516 934.7418823242188 143.4560546875 C 931.9769287109375 139.8967742919922 928.720458984375 136.6601104736328 925.0628662109375 133.8355865478516 C 921.460693359375 131.0536804199219 917.3678588867188 128.5929565429688 912.8980712890625 126.5220108032227 C 908.4945068359375 124.4817733764648 903.6023559570312 122.7627258300781 898.3576049804688 121.4129638671875 C 893.1945190429688 120.0839157104492 887.546875 119.076057434082 881.5716552734375 118.4170074462891 C 875.6961669921875 117.768913269043 869.3414306640625 117.4403457641602 862.6840209960938 117.4403457641602 C 848.5066528320312 117.4403457641602 832.3475952148438 118.9303436279297 814.6554565429688 121.8689117431641 C 797.7142944335938 124.6829605102539 778.9209594726562 128.8991546630859 758.797119140625 134.4010620117188 C 739.5997314453125 139.6493988037109 718.6868896484375 146.2058258056641 696.6387939453125 153.8877258300781 C 675.6883544921875 161.187255859375 653.1654663085938 169.6941528320312 629.6961669921875 179.1717681884766 C 548.4852294921875 211.9672546386719 452.4304809570312 257.6994018554688 344.2004699707031 315.0982055664062 C 301.6771545410156 337.6498718261719 257.1495361328125 362.0789184570312 211.8545227050781 387.706298828125 C 175.6173858642578 408.2089233398438 138.8107147216797 429.5201110839844 102.456901550293 451.0479736328125 C 50.16178131103516 482.0158996582031 13.7587251663208 504.5914306640625 3.484820604324341 511.0000915527344 L 1920 511.0000915527344 M 1921 512.0001220703125 L 0 512.0001220703125 C 0 512.0001220703125 629.0292358398438 116.4404067993164 862.6839599609375 116.4404067993164 C 915.9791870117188 116.4404067993164 948.69287109375 137.0124816894531 948.69287109375 187.5536804199219 C 948.69287109375 249.6880187988281 999.4451904296875 273.6818542480469 1077.679809570312 273.6818542480469 C 1342.079956054688 273.6818542480469 1921 0.0001060267823049799 1921 0.0001060267823049799 L 1921 512.0001220703125 Z" stroke="none" fill="#707070"/>
  </g>
</svg>
